<mxfile host="Electron" agent="Mozilla/5.0 (Windows NT 10.0; Win64; x64) AppleWebKit/537.36 (KHTML, like Gecko) draw.io/28.1.2 Chrome/138.0.7204.243 Electron/37.4.0 Safari/537.36" version="28.1.2">
  <diagram name="PÃ¡gina-1" id="Rq2Lxz88Ccl99Aa2fVPA">
    <mxGraphModel dx="1665" dy="2028" grid="1" gridSize="10" guides="1" tooltips="1" connect="1" arrows="1" fold="1" page="1" pageScale="1" pageWidth="827" pageHeight="1169" math="0" shadow="0">
      <root>
        <mxCell id="0" />
        <mxCell id="1" parent="0" />
        <mxCell id="0OqSZep3OSY8aWxq0zp2-3" value="" style="rounded=0;whiteSpace=wrap;html=1;" parent="1" vertex="1">
          <mxGeometry x="178" y="-970" width="470" height="640" as="geometry" />
        </mxCell>
        <mxCell id="0OqSZep3OSY8aWxq0zp2-17" style="rounded=0;orthogonalLoop=1;jettySize=auto;html=1;exitX=0.5;exitY=0;exitDx=0;exitDy=0;exitPerimeter=0;entryX=0;entryY=0.5;entryDx=0;entryDy=0;edgeStyle=orthogonalEdgeStyle;" parent="1" source="0OqSZep3OSY8aWxq0zp2-4" target="0OqSZep3OSY8aWxq0zp2-9" edge="1">
          <mxGeometry relative="1" as="geometry" />
        </mxCell>
        <mxCell id="0OqSZep3OSY8aWxq0zp2-4" value="Aumno registrado" style="shape=umlActor;verticalLabelPosition=bottom;verticalAlign=top;html=1;outlineConnect=0;" parent="1" vertex="1">
          <mxGeometry x="90" y="-820" width="30" height="60" as="geometry" />
        </mxCell>
        <mxCell id="0OqSZep3OSY8aWxq0zp2-22" style="edgeStyle=orthogonalEdgeStyle;rounded=0;orthogonalLoop=1;jettySize=auto;html=1;exitX=0.5;exitY=0.5;exitDx=0;exitDy=0;exitPerimeter=0;entryX=0;entryY=0.5;entryDx=0;entryDy=0;" parent="1" source="0OqSZep3OSY8aWxq0zp2-5" target="0OqSZep3OSY8aWxq0zp2-8" edge="1">
          <mxGeometry relative="1" as="geometry" />
        </mxCell>
        <mxCell id="0OqSZep3OSY8aWxq0zp2-5" value="administrativo" style="shape=umlActor;verticalLabelPosition=bottom;verticalAlign=top;html=1;outlineConnect=0;" parent="1" vertex="1">
          <mxGeometry x="90" y="-485" width="30" height="60" as="geometry" />
        </mxCell>
        <mxCell id="0OqSZep3OSY8aWxq0zp2-7" value="Servicio de banco" style="shape=umlActor;verticalLabelPosition=bottom;verticalAlign=top;html=1;outlineConnect=0;" parent="1" vertex="1">
          <mxGeometry x="710" y="-800" width="30" height="60" as="geometry" />
        </mxCell>
        <mxCell id="0OqSZep3OSY8aWxq0zp2-8" value="Cargar carreras" style="ellipse;whiteSpace=wrap;html=1;" parent="1" vertex="1">
          <mxGeometry x="230" y="-470" width="140" height="70" as="geometry" />
        </mxCell>
        <mxCell id="0OqSZep3OSY8aWxq0zp2-9" value="Inscribirse" style="ellipse;whiteSpace=wrap;html=1;" parent="1" vertex="1">
          <mxGeometry x="240" y="-940" width="140" height="70" as="geometry" />
        </mxCell>
        <mxCell id="0OqSZep3OSY8aWxq0zp2-10" value="Registrar" style="ellipse;whiteSpace=wrap;html=1;" parent="1" vertex="1">
          <mxGeometry x="240" y="-580" width="140" height="70" as="geometry" />
        </mxCell>
        <mxCell id="0OqSZep3OSY8aWxq0zp2-11" value="Iniciar sesion" style="ellipse;whiteSpace=wrap;html=1;" parent="1" vertex="1">
          <mxGeometry x="250" y="-790" width="140" height="70" as="geometry" />
        </mxCell>
        <mxCell id="0OqSZep3OSY8aWxq0zp2-12" value="Cerrar sesion" style="ellipse;whiteSpace=wrap;html=1;" parent="1" vertex="1">
          <mxGeometry x="240" y="-700" width="140" height="70" as="geometry" />
        </mxCell>
        <mxCell id="0OqSZep3OSY8aWxq0zp2-18" style="edgeStyle=orthogonalEdgeStyle;rounded=0;orthogonalLoop=1;jettySize=auto;html=1;exitX=0;exitY=0.5;exitDx=0;exitDy=0;entryX=1;entryY=0.5;entryDx=0;entryDy=0;" parent="1" source="0OqSZep3OSY8aWxq0zp2-13" target="0OqSZep3OSY8aWxq0zp2-9" edge="1">
          <mxGeometry relative="1" as="geometry" />
        </mxCell>
        <mxCell id="0OqSZep3OSY8aWxq0zp2-19" value="Extend" style="edgeLabel;html=1;align=center;verticalAlign=middle;resizable=0;points=[];" parent="0OqSZep3OSY8aWxq0zp2-18" vertex="1" connectable="0">
          <mxGeometry x="-0.1103" y="2" relative="1" as="geometry">
            <mxPoint as="offset" />
          </mxGeometry>
        </mxCell>
        <mxCell id="0OqSZep3OSY8aWxq0zp2-13" value="Pagar con tarjeta" style="ellipse;whiteSpace=wrap;html=1;" parent="1" vertex="1">
          <mxGeometry x="480" y="-870" width="140" height="70" as="geometry" />
        </mxCell>
        <mxCell id="0OqSZep3OSY8aWxq0zp2-21" value="" style="endArrow=none;html=1;rounded=0;fillColor=#FF0A0A;exitX=0.75;exitY=0.1;exitDx=0;exitDy=0;exitPerimeter=0;" parent="1" source="0OqSZep3OSY8aWxq0zp2-4" target="0OqSZep3OSY8aWxq0zp2-13" edge="1">
          <mxGeometry width="50" height="50" relative="1" as="geometry">
            <mxPoint x="150" y="-800" as="sourcePoint" />
            <mxPoint x="160" y="-880" as="targetPoint" />
          </mxGeometry>
        </mxCell>
        <mxCell id="0OqSZep3OSY8aWxq0zp2-23" value="" style="endArrow=none;html=1;rounded=0;exitX=0.5;exitY=0.5;exitDx=0;exitDy=0;exitPerimeter=0;entryX=1;entryY=0.5;entryDx=0;entryDy=0;" parent="1" source="0OqSZep3OSY8aWxq0zp2-7" target="0OqSZep3OSY8aWxq0zp2-13" edge="1">
          <mxGeometry width="50" height="50" relative="1" as="geometry">
            <mxPoint x="620" y="-710" as="sourcePoint" />
            <mxPoint x="670" y="-760" as="targetPoint" />
          </mxGeometry>
        </mxCell>
        <mxCell id="0OqSZep3OSY8aWxq0zp2-29" style="rounded=0;orthogonalLoop=1;jettySize=auto;html=1;exitX=1;exitY=1;exitDx=0;exitDy=0;exitPerimeter=0;entryX=0;entryY=0.5;entryDx=0;entryDy=0;" parent="1" source="0OqSZep3OSY8aWxq0zp2-4" target="0OqSZep3OSY8aWxq0zp2-11" edge="1">
          <mxGeometry relative="1" as="geometry">
            <mxPoint x="45" y="-620" as="sourcePoint" />
          </mxGeometry>
        </mxCell>
        <mxCell id="0OqSZep3OSY8aWxq0zp2-30" style="rounded=0;orthogonalLoop=1;jettySize=auto;html=1;exitX=0;exitY=1;exitDx=0;exitDy=0;exitPerimeter=0;entryX=0;entryY=0;entryDx=0;entryDy=0;" parent="1" target="0OqSZep3OSY8aWxq0zp2-12" edge="1" source="0OqSZep3OSY8aWxq0zp2-4">
          <mxGeometry relative="1" as="geometry">
            <mxPoint x="60" y="-600" as="sourcePoint" />
            <mxPoint x="230.0000000000001" y="-564.9999999999998" as="targetPoint" />
          </mxGeometry>
        </mxCell>
        <mxCell id="EsEp2TU1-iRupRaP53i_-2" style="edgeStyle=orthogonalEdgeStyle;rounded=0;orthogonalLoop=1;jettySize=auto;html=1;exitX=0.5;exitY=0.5;exitDx=0;exitDy=0;exitPerimeter=0;" edge="1" parent="1" source="EsEp2TU1-iRupRaP53i_-1" target="0OqSZep3OSY8aWxq0zp2-10">
          <mxGeometry relative="1" as="geometry" />
        </mxCell>
        <mxCell id="EsEp2TU1-iRupRaP53i_-1" value="Aumno no registrado" style="shape=umlActor;verticalLabelPosition=bottom;verticalAlign=top;html=1;outlineConnect=0;" vertex="1" parent="1">
          <mxGeometry x="90" y="-614" width="30" height="60" as="geometry" />
        </mxCell>
      </root>
    </mxGraphModel>
  </diagram>
</mxfile>
